<svg width="48" height="42" viewBox="0 0 48 42" fill="none" xmlns="http://www.w3.org/2000/svg">
<path d="M17.9998 29.5567L17.2498 29.5567L17.9998 29.5567ZM22.4427 34.6579L22.3505 35.4022L22.3505 35.4022L22.4427 34.6579ZM42.557 34.6579L42.6492 35.4022L42.6492 35.4022L42.557 34.6579ZM21.9722 16C21.9722 12.5482 24.7705 9.75 28.2222 9.75V8.25C23.942 8.25 20.4722 11.7198 20.4722 16H21.9722ZM21.9722 22.7162V16H20.4722V22.7162H21.9722ZM18.7498 29.5567C18.7498 28.2989 19.2646 27.1628 20.0969 26.3451L19.0457 25.2751C17.9382 26.3632 17.2498 27.8802 17.2498 29.5567L18.7498 29.5567ZM22.5348 33.9136C20.3595 33.6442 18.7498 31.7759 18.7498 29.5567L17.2498 29.5567C17.2498 32.5057 19.3969 35.0365 22.3505 35.4022L22.5348 33.9136ZM32.4998 34.6851C29.4772 34.6851 25.5414 34.2858 22.5348 33.9136L22.3505 35.4022C25.3656 35.7755 29.3788 36.1851 32.4998 36.1851V34.6851ZM42.4649 33.9136C39.4583 34.2858 35.5225 34.6851 32.4998 34.6851V36.1851C35.6209 36.1851 39.6341 35.7755 42.6492 35.4022L42.4649 33.9136ZM46.2498 29.5567C46.2498 31.7759 44.6402 33.6442 42.4649 33.9136L42.6492 35.4022C45.6028 35.0365 47.7498 32.5057 47.7498 29.5567H46.2498ZM44.9029 26.3452C45.7351 27.1629 46.2498 28.299 46.2498 29.5567H47.7498C47.7498 27.8803 47.0616 26.3634 45.9542 25.2753L44.9029 26.3452ZM43.0278 16V22.7165H44.5278V16H43.0278ZM36.7778 9.75C40.2296 9.75 43.0278 12.5482 43.0278 16H44.5278C44.5278 11.7198 41.058 8.25 36.7778 8.25V9.75ZM28.2222 9.75H36.7778V8.25H28.2222V9.75ZM45.9542 25.2753C45.1135 24.4493 44.5278 23.6005 44.5278 22.7165H43.0278C43.0278 24.2495 44.0195 25.4772 44.9029 26.3452L45.9542 25.2753ZM20.4722 22.7162C20.4722 23.6003 19.8864 24.4491 19.0457 25.2751L20.0969 26.3451C20.9804 25.477 21.9722 24.2493 21.9722 22.7162H20.4722Z" fill="black"/>
<path opacity="0.3" d="M36.5278 39.1343C35.6619 40.2589 34.1812 41.0001 32.5001 41.0001C30.8189 41.0001 29.3382 40.2589 28.4723 39.1343" stroke="black" stroke-width="1.5" stroke-linecap="round"/>
</svg>
