<svg width="31" height="34" viewBox="0 0 31 34" fill="none" xmlns="http://www.w3.org/2000/svg">
<path d="M1.00016 21.5567H0.250159H1.00016ZM5.44299 26.6579L5.35084 27.4022H5.35084L5.44299 26.6579ZM25.5573 26.6579L25.4652 25.9136H25.4652L25.5573 26.6579ZM4.97256 8C4.97256 4.54822 7.77078 1.75 11.2226 1.75V0.25C6.94235 0.25 3.47256 3.7198 3.47256 8H4.97256ZM4.97256 14.7162V8H3.47256V14.7162H4.97256ZM1.75016 21.5567C1.75016 20.2989 2.26496 19.1628 3.09724 18.3451L2.046 17.2751C0.938469 18.3632 0.250159 19.8802 0.250159 21.5567H1.75016ZM5.53515 25.9136C3.3598 25.6442 1.75016 23.7759 1.75016 21.5567H0.250159C0.250158 24.5057 2.39722 27.0365 5.35084 27.4022L5.53515 25.9136ZM15.5002 26.6851C12.4775 26.6851 8.54174 26.2858 5.53515 25.9136L5.35084 27.4022C8.36588 27.7755 12.3791 28.1851 15.5002 28.1851V26.6851ZM25.4652 25.9136C22.4586 26.2858 18.5228 26.6851 15.5002 26.6851V28.1851C18.6212 28.1851 22.6344 27.7755 25.6495 27.4022L25.4652 25.9136ZM29.2502 21.5567C29.2502 23.7759 27.6405 25.6442 25.4652 25.9136L25.6495 27.4022C28.6031 27.0365 30.7502 24.5057 30.7502 21.5567H29.2502ZM27.9032 18.3452C28.7354 19.1629 29.2502 20.299 29.2502 21.5567H30.7502C30.7502 19.8803 30.0619 18.3634 28.9545 17.2753L27.9032 18.3452ZM26.0281 8V14.7165H27.5281V8H26.0281ZM19.7781 1.75C23.2299 1.75 26.0281 4.54822 26.0281 8H27.5281C27.5281 3.71979 24.0583 0.25 19.7781 0.25V1.75ZM11.2226 1.75H19.7781V0.25H11.2226V1.75ZM28.9545 17.2753C28.1138 16.4493 27.5281 15.6005 27.5281 14.7165H26.0281C26.0281 16.2495 27.0198 17.4772 27.9032 18.3452L28.9545 17.2753ZM3.47256 14.7162C3.47256 15.6003 2.88674 16.4491 2.046 17.2751L3.09724 18.3451C3.98076 17.477 4.97256 16.2493 4.97256 14.7162H3.47256Z" fill="white"/>
<path opacity="0.3" d="M19.5277 31.1343C18.6618 32.2589 17.1811 33.0001 15.4999 33.0001C13.8188 33.0001 12.3381 32.2589 11.4722 31.1343" stroke="white" stroke-width="1.5" stroke-linecap="round"/>
</svg>
