<svg width="24" height="24" viewBox="0 0 24 24" fill="none" xmlns="http://www.w3.org/2000/svg">
<path fill-rule="evenodd" clip-rule="evenodd" d="M1.26459 2.85294C1.34582 2.44677 1.74094 2.18335 2.14711 2.26459L3.19647 2.47446C4.38172 2.71151 5.27323 3.6947 5.3935 4.89742L5.47876 5.75002H19.0542C21.0385 5.75002 22.4944 7.61476 22.0132 9.53975L20.8904 14.0308C20.4174 15.9228 18.7175 17.25 16.7673 17.25H7.77437C6.38232 17.25 5.20982 16.2098 5.04396 14.8277L4.05448 6.58202L3.90095 5.04668C3.84628 4.49998 3.44105 4.05308 2.9023 3.94533L1.85294 3.73546C1.44677 3.65422 1.18335 3.25911 1.26459 2.85294ZM8.99988 12.7499C8.58566 12.7499 8.24988 13.0857 8.24988 13.4999C8.24988 13.9141 8.58566 14.2499 8.99988 14.2499H12.9999C13.4141 14.2499 13.7499 13.9141 13.7499 13.4999C13.7499 13.0857 13.4141 12.7499 12.9999 12.7499H8.99988Z" fill="white"/>
<circle cx="8.5" cy="20" r="1.5" fill="white"/>
<circle cx="17.5" cy="20" r="1.5" fill="white"/>
</svg>
